<svg id="visual" viewBox="0 0 960 540" width="960" height="540" xmlns="http://www.w3.org/2000/svg" xmlns:xlink="http://www.w3.org/1999/xlink" version="1.1"><path d="M0 431L14.5 426.2C29 421.3 58 411.7 87.2 416.7C116.3 421.7 145.7 441.3 174.8 444.2C204 447 233 433 262 434.5C291 436 320 453 349 461C378 469 407 468 436.2 456.2C465.3 444.3 494.7 421.7 523.8 418.7C553 415.7 582 432.3 611 436.8C640 441.3 669 433.7 698 434.3C727 435 756 444 785.2 441.3C814.3 438.7 843.7 424.3 872.8 421.7C902 419 931 428 945.5 432.5L960 437L960 541L945.5 541C931 541 902 541 872.8 541C843.7 541 814.3 541 785.2 541C756 541 727 541 698 541C669 541 640 541 611 541C582 541 553 541 523.8 541C494.7 541 465.3 541 436.2 541C407 541 378 541 349 541C320 541 291 541 262 541C233 541 204 541 174.8 541C145.7 541 116.3 541 87.2 541C58 541 29 541 14.5 541L0 541Z" fill="#693bfc"></path><path d="M0 460L14.5 460.7C29 461.3 58 462.7 87.2 457.8C116.3 453 145.7 442 174.8 441.2C204 440.3 233 449.7 262 456.7C291 463.7 320 468.3 349 473.5C378 478.7 407 484.3 436.2 483.8C465.3 483.3 494.7 476.7 523.8 466.2C553 455.7 582 441.3 611 437.5C640 433.7 669 440.3 698 445.7C727 451 756 455 785.2 453.5C814.3 452 843.7 445 872.8 446.7C902 448.3 931 458.7 945.5 463.8L960 469L960 541L945.5 541C931 541 902 541 872.8 541C843.7 541 814.3 541 785.2 541C756 541 727 541 698 541C669 541 640 541 611 541C582 541 553 541 523.8 541C494.7 541 465.3 541 436.2 541C407 541 378 541 349 541C320 541 291 541 262 541C233 541 204 541 174.8 541C145.7 541 116.3 541 87.2 541C58 541 29 541 14.5 541L0 541Z" fill="#5839e6"></path><path d="M0 471L14.5 470.2C29 469.3 58 467.7 87.2 470.7C116.3 473.7 145.7 481.3 174.8 481C204 480.7 233 472.3 262 468.2C291 464 320 464 349 464.5C378 465 407 466 436.2 473.2C465.3 480.3 494.7 493.7 523.8 498.8C553 504 582 501 611 494.3C640 487.7 669 477.3 698 471C727 464.7 756 462.3 785.2 464C814.3 465.7 843.7 471.3 872.8 471.7C902 472 931 467 945.5 464.5L960 462L960 541L945.5 541C931 541 902 541 872.8 541C843.7 541 814.3 541 785.2 541C756 541 727 541 698 541C669 541 640 541 611 541C582 541 553 541 523.8 541C494.7 541 465.3 541 436.2 541C407 541 378 541 349 541C320 541 291 541 262 541C233 541 204 541 174.8 541C145.7 541 116.3 541 87.2 541C58 541 29 541 14.5 541L0 541Z" fill="#4835d0"></path><path d="M0 524L14.5 520.5C29 517 58 510 87.2 510.3C116.3 510.7 145.7 518.3 174.8 520.2C204 522 233 518 262 517.5C291 517 320 520 349 517.3C378 514.7 407 506.3 436.2 505.2C465.3 504 494.7 510 523.8 509.2C553 508.3 582 500.7 611 501.8C640 503 669 513 698 516.5C727 520 756 517 785.2 513.5C814.3 510 843.7 506 872.8 507.2C902 508.3 931 514.7 945.5 517.8L960 521L960 541L945.5 541C931 541 902 541 872.8 541C843.7 541 814.3 541 785.2 541C756 541 727 541 698 541C669 541 640 541 611 541C582 541 553 541 523.8 541C494.7 541 465.3 541 436.2 541C407 541 378 541 349 541C320 541 291 541 262 541C233 541 204 541 174.8 541C145.7 541 116.3 541 87.2 541C58 541 29 541 14.5 541L0 541Z" fill="#3931bb"></path></svg>